<svg width="19" height="17" viewBox="0 0 19 17" fill="none" xmlns="http://www.w3.org/2000/svg">
<path d="M17.6713 3.95081L10.2676 0.332686C10.0287 0.216765 9.76612 0.156494 9.5 0.156494C9.23388 0.156494 8.97129 0.216765 8.73237 0.332686L1.32873 3.95081C0.930067 4.14212 0.593971 4.44067 0.358964 4.81223C0.123957 5.1838 -0.000450807 5.61334 1.22747e-06 6.05162V13.7959C1.22747e-06 15.0913 1.07808 16.145 2.40342 16.145H16.5966C17.9219 16.145 19 15.0913 19 13.7959V6.05162C19.0005 5.61334 18.876 5.1838 18.641 4.81223C18.406 4.44067 18.0699 4.14212 17.6713 3.95081ZM9.34647 1.53327C9.39426 1.51009 9.44678 1.49803 9.5 1.49803C9.55322 1.49803 9.60574 1.51009 9.65353 1.53327L16.8371 5.04274L9.54241 8.60843C9.49463 8.63161 9.44211 8.64366 9.38888 8.64366C9.33566 8.64366 9.28314 8.63161 9.23536 8.60843L2.05056 5.09854L9.34647 1.53327Z" fill="white"/>
</svg>
